<svg version="1.2" xmlns="http://www.w3.org/2000/svg" viewBox="0 0 2147.55 1912.89" width="2148" height="1913">
	<defs>
		<linearGradient id="g1" x2="1" gradientUnits="userSpaceOnUse" gradientTransform="matrix(60.09,0,0,193.73,948.44,1096.27)">
			<stop offset="0" stop-color="#a63ad8"/>
			<stop offset="1" stop-color="#e61eab"/>
		</linearGradient>
		<linearGradient id="g2" x2="1" gradientUnits="userSpaceOnUse" gradientTransform="matrix(1681.12,0,0,1485.01,173.67,205.44)">
			<stop offset="0" stop-color="#a63ad8"/>
			<stop offset="1" stop-color="#e61eab"/>
		</linearGradient>
	</defs>
	<style>
		.s0 { fill: url(#g1) } 
		.s1 { fill: url(#g2) } 
	</style>
	<g id="Layer 1">
		<g id="Cartella 1">
			<path class="s0" d="m948.44 1290h60.09l-29.78-193.73-30.31 193.73z"/>
			<path class="s1" d="m1792.85 805.97c-22.66-16.49-49.23-26.34-76.76-28.46-3.83-0.29-7.74-0.45-11.59-0.45-15.73 0-31.38 2.47-46.47 7.36l-28.9 9.33-10.07 3.24-206.24 66.56c-45.27-63.52-115.79-102.98-193.11-108.41 28.73-13.93 55.24-32.71 78.48-55.95 54.63-54.63 84.71-127.26 84.71-204.52 0-77.26-30.09-149.89-84.71-204.52-54.63-54.63-127.26-84.71-204.52-84.71-77.26 0-149.89 30.09-204.52 84.71-54.63 54.63-84.71 127.26-84.71 204.52 0 77.26 30.09 149.89 84.71 204.52 22.87 22.87 48.91 41.42 77.11 55.28h-327.09c20.18-11.01 38.9-24.97 55.61-41.68 45.86-45.86 71.11-106.82 71.11-171.68 0-64.86-25.25-125.82-71.11-171.67-45.86-45.86-106.82-71.11-171.67-71.11-64.85 0-125.82 25.25-171.67 71.11-45.86 45.86-71.11 106.82-71.11 171.67 0 64.85 25.25 125.82 71.11 171.68 18.02 18.01 38.37 32.83 60.37 44.21-59.41 8.02-114.3 35.08-157.42 78.19-52.05 52.06-80.72 121.26-80.72 194.88v369.19c0 73.6 28.67 142.81 80.72 194.87 52.04 52.04 121.25 80.71 194.87 80.71h752.08c70.18 0 137.59-28.68 186.4-78.99l270.31 87.24c15.13 4.88 30.78 7.36 46.49 7.36 4.66 0 9.41-0.23 14.14-0.67 26.66-2.55 52.32-12.31 74.18-28.24 39.35-28.66 61.93-73.01 61.93-121.68v-612.19c0-48.68-22.57-93.03-61.93-121.69zm-173.96 55.24l9.96-2.54 36.29-9.25c8.33-2.12 16.77-3.43 25.21-3.94 15.37 1.19 30.27 6.64 43.27 16.11 22.21 16.17 34.96 41.2 34.96 68.69v395.1h-149.68c0 0 0-464.17-0.01-464.17zm-752.74-366.54c0-125.46 102.07-227.53 227.53-227.53 125.46 0 227.53 102.07 227.53 227.53 0 125.46-102.07 227.53-227.53 227.53-125.46 0-227.53-102.07-227.53-227.53zm-524.12 46.45c0-99.85 81.23-181.08 181.08-181.08 99.85 0 181.08 81.23 181.08 181.08 0 99.85-81.23 181.08-181.08 181.08-99.85 0-181.08-81.23-181.08-181.08zm14.52 739.09q6.59 28.83 17.77 49.77 11.17 20.95 26.08 31.95 14.91 11 31.54 11 23.49 0.01 40.41-17.82 16.92-17.79 26.66-41.91l83.7 183.36q-27.53 50.29-67.65 80.16-34.41 25.6-76.84 29.25h-0.03c-107.71-8.24-192.83-98.52-192.83-208.31v-365.9c0-109.7 84.99-199.94 192.59-208.3q39.26 3.56 74.81 27.13 41.85 27.78 69.95 74.92l-83.7 184.41q-11.47-27.23-28.67-41.39-17.21-14.14-38.41-14.14-17.2 0-32.11 10.99-14.91 11.01-26.09 31.96-11.19 20.96-17.49 50.81-6.31 29.87-6.3 66.54 0 36.67 6.6 65.49zm386.04 326.39h-125.4v-783.75h125.4zm312.96 0l-19.34-115.13h-117.55l-18.28 115.13h-131.67l145.77-783.75h132.19l144.21 783.75h-135.32zm359.23-71.76l-76.05-240.41h-1.04v254.03c-31.3 31.98-73.59 53.17-120.7 57.37v-782.2c46.84 4.18 88.93 25.15 120.17 56.84v231.31h1.04l59.39-173.78 161.19-52.02-114.53 295.54 139.92 408.01-169.4-54.68zm282.35 90.11c-48.69 0-88.16-61.39-88.16-137.13 0-75.74 39.46-137.13 88.16-137.13 48.7 0 88.16 61.39 88.16 137.13 0 75.74-39.46 137.13-88.16 137.13z"/>
		</g>
	</g>
</svg>